<?xml version="1.0" standalone="no"?>
<!DOCTYPE svg PUBLIC "-//W3C//DTD SVG 20010904//EN"
 "http://www.w3.org/TR/2001/REC-SVG-20010904/DTD/svg10.dtd">
<svg version="1.0" xmlns="http://www.w3.org/2000/svg"
 width="1000.000000pt" height="1000.000000pt" viewBox="0 0 1000.000000 1000.000000"
 preserveAspectRatio="xMidYMid meet">
<metadata>
Created by potrace 1.14, written by Peter Selinger 2001-2017
</metadata>
<g transform="translate(0.000000,1000.000000) scale(0.100000,-0.100000)"
fill="#000000" stroke="none">
<path d="M4808 8005 c-2 -2 -32 -6 -68 -10 -83 -8 -114 -13 -170 -25 -25 -5
-56 -12 -70 -14 -14 -3 -34 -7 -45 -10 -11 -2 -87 -20 -170 -40 -82 -19 -181
-45 -220 -56 -38 -12 -74 -23 -80 -24 -5 -2 -23 -8 -40 -15 -16 -6 -60 -23
-98 -37 -94 -36 -275 -130 -379 -197 -81 -52 -330 -229 -354 -252 -6 -5 -36
-30 -65 -55 -100 -82 -255 -246 -333 -350 -22 -30 -43 -57 -46 -60 -3 -3 -14
-18 -25 -34 -11 -16 -29 -41 -40 -56 -140 -187 -283 -446 -346 -625 -29 -84
-69 -215 -75 -245 -3 -14 -7 -33 -10 -42 -3 -9 -7 -25 -9 -35 -2 -10 -15 -65
-29 -123 -68 -287 -81 -388 -81 -645 0 -154 7 -263 20 -333 1 -9 6 -37 10 -62
6 -42 87 -396 106 -467 22 -79 28 -101 47 -158 68 -202 182 -424 315 -613 67
-95 211 -285 245 -325 36 -41 176 -182 232 -233 60 -54 292 -225 405 -298 50
-32 101 -66 115 -75 72 -48 308 -154 445 -199 100 -33 473 -126 555 -138 19
-3 42 -7 50 -9 17 -5 62 -12 135 -21 158 -20 569 -7 663 20 9 3 33 7 52 10 19
3 84 17 144 31 60 15 116 28 125 30 35 7 180 45 244 64 198 59 415 161 602
286 337 223 553 416 737 657 289 380 436 672 524 1038 8 36 17 72 19 80 29
121 75 336 80 375 20 161 22 204 22 345 0 228 -17 363 -79 620 -16 69 -32 139
-35 155 -8 46 -70 250 -104 340 -51 134 -150 324 -236 453 -207 311 -387 519
-593 686 -52 42 -276 204 -319 231 -9 6 -18 12 -21 15 -12 12 -133 82 -221
128 -200 104 -365 160 -684 232 -77 17 -153 36 -170 40 -16 5 -47 11 -67 14
-57 9 -98 15 -148 22 -46 6 -456 15 -462 9z m452 -628 c14 -3 48 -8 75 -12
201 -25 482 -110 655 -197 30 -16 57 -28 61 -28 9 0 146 -80 229 -134 66 -42
140 -98 229 -170 33 -27 239 -233 266 -266 149 -185 233 -315 319 -492 123
-255 193 -500 224 -778 14 -135 6 -494 -14 -593 -5 -28 -13 -68 -19 -109 -3
-18 -21 -90 -41 -160 -149 -543 -497 -1018 -974 -1330 -216 -141 -558 -286
-760 -322 -14 -2 -61 -11 -105 -19 -132 -25 -211 -32 -405 -32 -163 0 -272 7
-343 21 -12 2 -49 9 -82 14 -84 14 -92 16 -186 41 -46 12 -88 26 -93 30 -6 5
-17 9 -25 9 -29 0 -205 73 -327 135 -234 120 -413 251 -604 444 -95 96 -246
282 -297 366 -135 222 -206 377 -283 620 -13 41 -50 201 -56 244 -3 20 -7 47
-10 61 -12 73 -19 193 -19 345 1 202 9 297 40 445 3 14 8 39 11 55 25 141 113
385 200 556 193 378 513 720 876 936 117 69 211 117 313 157 39 16 79 32 90
37 31 13 207 66 242 73 10 2 29 7 43 10 65 15 180 34 256 41 38 4 70 9 72 10
6 5 415 -3 442 -8z"/>
<path d="M4760 6813 c-76 -11 -198 -37 -265 -56 -206 -60 -458 -195 -630 -338
-175 -147 -348 -365 -449 -567 -70 -140 -146 -377 -161 -502 -4 -30 -10 -59
-13 -65 -9 -15 -11 -355 -2 -415 5 -30 11 -74 14 -98 34 -265 188 -605 376
-832 135 -162 321 -322 475 -407 302 -168 575 -241 902 -241 78 1 168 5 200
10 130 19 121 18 223 41 396 93 784 362 1023 708 116 168 193 332 251 531 25
86 28 102 51 248 13 86 13 399 0 470 -49 263 -72 337 -168 540 -33 70 -97 182
-129 225 -154 209 -303 353 -492 477 -72 47 -260 149 -286 154 -6 1 -35 12
-65 24 -70 28 -174 58 -270 76 -178 34 -420 41 -585 17z"/>
</g>
</svg>
