<svg version="1" xmlns="http://www.w3.org/2000/svg" width="346.667" height="346.667" viewBox="0 0 260.000000 260.000000"><path d="M74.5 37.2c-.2.7-3 13.9-6.1 29.3-5.2 25.4-6.1 28.5-9.6 34.4-4.2 7.2-8.1 18.3-9.7 27.5-.6 3.3-1.1 13.1-1.1 21.8 0 14.2-.3 17.4-3.5 32.4-1.9 9.1-3.5 17.4-3.5 18.5 0 1.6.7 1.9 5 1.9 5.2 0 7-1.5 7-5.9 0-2.1.3-2.1 35.4-2.1h35.3l1.3 4.5c2.3 8.3 7.8 8.5 10.5.5l1.7-5H206.9l1.1 4c1.1 4 1.1 4 6 4 2.7 0 5.1-.4 5.4-.9.3-.5-.8-7.6-2.5-15.7-2.7-12.7-3.3-18-3.9-35.9-.8-25.1-2.2-31.5-9.7-46.5-5.1-10-5.6-11.8-10.8-37-3-14.6-5.7-27.5-6-28.8-.5-1.9-1.1-2.3-3.8-2-3.2.3-3.2.4-8.4 15.3-2.8 8.2-5.3 15.4-5.5 15.9-.2.4-3.1-.3-6.3-1.7-19.5-8.2-40.4-8.7-60-1.5-4.4 1.6-8.6 3-9.4 3.1-.9.1-3-4.6-6.6-15.3-5.1-15.4-5.2-15.5-8.3-15.8-2-.2-3.4.2-3.7 1zm109.8 38.5c.8 3.9.1 4.1-3.6.8l-2.8-2.5 1.8-5.7 1.8-5.7 1.1 5c.6 2.7 1.4 6.4 1.7 8.1zm-104.5.6c-1.6 1.6-3.2 2.7-3.4 2.4-.4-.4 1.4-11 2.3-13.7.3-.9 1.2.5 2.3 3.5l1.8 5-3 2.8zm60.7-4.3c8.4 1.2 22.5 5.9 23.2 7.7.7 1.8-32.9 101.6-33.8 100.6-.3-.5-8-22.9-16.9-49.8L96.3 80.4c-.4-1.2 6.6-4.5 13.7-6.4 10.5-2.9 19.8-3.5 30.5-2zM87 86.3c0 .2 7.2 21.6 16 47.6s16 47.7 16 48.2-12.6.9-30.5.9H58v-5.6c0-5.8 12.2-71.7 14.2-76.7 1.7-4.3 14.8-17 14.8-14.4zm93.1 4.4c2.8 2.6 5.9 6 7 7.4 2.8 3.9 14.9 66.9 14.9 77.3v7.6h-60.9l16-47.3c8.8-25.9 16.1-47.8 16.4-48.5.7-1.8 1.2-1.6 6.6 3.5z"/></svg>