<svg version="1.1" baseProfile="tiny" id="LOGO" xmlns="http://www.w3.org/2000/svg" xmlns:xlink="http://www.w3.org/1999/xlink" x="0px" y="0px" viewBox="0 0 180 180" xml:space="preserve">
<g>
	<g>
		<path fill="#E0E0D4" d="M51.6,26.2c0.2-0.7,0.8-1.1,1.5-1.1h1.8c0.8,0,1.3,0.3,1.6,1.1L90,126.1c0.2,0,0.2,0,0.3,0L124,26.2
			c0.3-0.8,0.8-1.1,1.6-1.1h1.8c0.7,0,1.3,0.5,1.5,1.1L152,138.4c0.3,1.6-0.3,2.1-1.8,2.1h-3.9c-1,0-1.8-0.8-2-1.8L126,43.4
			c-0.2,0-0.3,0-0.3,0l-32.9,97.5c-0.3,1-1.3,1.3-2.3,1.3h-0.7c-0.8,0-1.8-0.2-2.1-1.3L54.9,43.4c0,0-0.2,0-0.3,0l-18.4,95.3
			c-0.2,1-1,1.8-2,1.8h-3.9c-1.5,0-2.1-0.5-1.8-2.1L51.6,26.2z"/>
	</g>
	<g>
		<path fill="#E0E0D4" d="M35.4,134.8c-1.1,0-2.1-1-2.1-2V98.3C33.3,66.8,58.8,41,90.1,41c31.7,0,57.1,25.7,57.1,57.3v34.5
			c0,1-1,2-2.1,2H35.4z M140.2,99.6c0-29-21.6-50.4-50.1-50.4c-28.1,0-49.8,21.3-49.8,50.4v27.5h99.9V99.6z"/>
	</g>
</g>
</svg>